<?xml version="1.0" encoding="UTF-8" standalone="no"?>
<!-- Generator: Adobe Illustrator 19.0.0, SVG Export Plug-In . SVG Version: 6.00 Build 0)  -->

<svg
   xmlns:dc="http://purl.org/dc/elements/1.1/"
   xmlns:cc="http://creativecommons.org/ns#"
   xmlns:rdf="http://www.w3.org/1999/02/22-rdf-syntax-ns#"
   xmlns:svg="http://www.w3.org/2000/svg"
   xmlns="http://www.w3.org/2000/svg"
   xmlns:sodipodi="http://sodipodi.sourceforge.net/DTD/sodipodi-0.dtd"
   xmlns:inkscape="http://www.inkscape.org/namespaces/inkscape"
   version="1.1"
   id="Layer_1"
   x="0px"
   y="0px"
   viewBox="0 0 512 512"
   style="enable-background:new 0 0 512 512;"
   xml:space="preserve"
   inkscape:version="0.91 r13725"
   sodipodi:docname="pause.svg"
   inkscape:export-filename="/home/flavius/Development/radio-ui/Resources/pause.png"
   inkscape:export-xdpi="90"
   inkscape:export-ydpi="90"><metadata
     id="metadata55"><rdf:RDF><cc:Work
         rdf:about=""><dc:format>image/svg+xml</dc:format><dc:type
           rdf:resource="http://purl.org/dc/dcmitype/StillImage" /></cc:Work></rdf:RDF></metadata><defs
     id="defs53" /><sodipodi:namedview
     pagecolor="#ffffff"
     bordercolor="#666666"
     borderopacity="1"
     objecttolerance="10"
     gridtolerance="10"
     guidetolerance="10"
     inkscape:pageopacity="0"
     inkscape:pageshadow="2"
     inkscape:window-width="928"
     inkscape:window-height="940"
     id="namedview51"
     showgrid="false"
     inkscape:zoom="0.4609375"
     inkscape:cx="260.33898"
     inkscape:cy="256"
     inkscape:window-x="0"
     inkscape:window-y="27"
     inkscape:window-maximized="0"
     inkscape:current-layer="Layer_1" /><g
     id="g3"
     style="fill:#ffffff;fill-opacity:1"><g
       id="g5"
       style="fill:#ffffff;fill-opacity:1"><path
         d="M477.607,128.055C443.432,68.861,388.25,26.52,322.229,8.83C256.207-8.862,187.249,0.218,128.055,34.393    C68.862,68.57,26.52,123.75,8.83,189.771c-17.69,66.022-8.611,134.981,25.564,194.174    c34.175,59.194,89.355,101.535,155.377,119.225c22.046,5.908,44.417,8.83,66.644,8.83c44.339-0.001,88.101-11.629,127.529-34.395    c59.193-34.175,101.535-89.355,119.225-155.377C520.861,256.207,511.782,187.248,477.607,128.055z M477.431,315.333    c-15.849,59.146-53.78,108.579-106.81,139.197c-53.028,30.616-114.806,38.748-173.952,22.901    c-59.147-15.849-108.581-53.78-139.197-106.81c-30.616-53.028-38.75-114.807-22.901-173.954    c15.849-59.146,53.78-108.579,106.81-139.197c35.325-20.395,74.523-30.812,114.249-30.812c19.91,0,39.958,2.62,59.705,7.91    c59.147,15.849,108.581,53.78,139.197,106.81C485.146,194.407,493.279,256.186,477.431,315.333z"
         id="path7"
         style="fill:#ffffff;fill-opacity:1" /></g></g><g
     id="g9"
     style="fill:#ffffff;fill-opacity:1"><g
       id="g11"
       style="fill:#ffffff;fill-opacity:1"><path
         d="M210.706,133.118h-33.12c-14.694,0-26.648,11.954-26.648,26.648v192.468c0,14.694,11.954,26.648,26.648,26.648h33.12    c14.694,0,26.648-11.954,26.648-26.648V159.766C237.354,145.072,225.4,133.118,210.706,133.118z M210.706,352.234h-33.12V159.766    h33.12l0.017,192.466C210.723,352.232,210.718,352.234,210.706,352.234z"
         id="path13"
         style="fill:#ffffff;fill-opacity:1" /></g></g><g
     id="g15"
     style="fill:#ffffff;fill-opacity:1"><g
       id="g17"
       style="fill:#ffffff;fill-opacity:1"><path
         d="M334.416,133.118h-33.12c-14.694,0-26.648,11.954-26.648,26.648v192.468c0,14.694,11.954,26.648,26.648,26.648h33.12    c14.694,0,26.648-11.954,26.648-26.648V159.766C361.064,145.072,349.109,133.118,334.416,133.118z M334.414,352.234h-33.12    V159.766h33.12l0.017,192.466C334.432,352.232,334.426,352.234,334.414,352.234z"
         id="path19"
         style="fill:#ffffff;fill-opacity:1" /></g></g><g
     id="g21" /><g
     id="g23" /><g
     id="g25" /><g
     id="g27" /><g
     id="g29" /><g
     id="g31" /><g
     id="g33" /><g
     id="g35" /><g
     id="g37" /><g
     id="g39" /><g
     id="g41" /><g
     id="g43" /><g
     id="g45" /><g
     id="g47" /><g
     id="g49" /></svg>