<?xml version="1.0" encoding="UTF-8" standalone="no"?>
<!-- Generator: Adobe Illustrator 19.0.0, SVG Export Plug-In . SVG Version: 6.00 Build 0)  -->

<svg
   xmlns:dc="http://purl.org/dc/elements/1.1/"
   xmlns:cc="http://creativecommons.org/ns#"
   xmlns:rdf="http://www.w3.org/1999/02/22-rdf-syntax-ns#"
   xmlns:svg="http://www.w3.org/2000/svg"
   xmlns="http://www.w3.org/2000/svg"
   xmlns:sodipodi="http://sodipodi.sourceforge.net/DTD/sodipodi-0.dtd"
   xmlns:inkscape="http://www.inkscape.org/namespaces/inkscape"
   version="1.1"
   id="Layer_1"
   x="0px"
   y="0px"
   viewBox="0 0 512 512"
   style="enable-background:new 0 0 512 512;"
   xml:space="preserve"
   inkscape:version="0.92.1 r15371"
   sodipodi:docname="play-button.svg"
   inkscape:export-filename="/home/flavius/Development/radio-ui/Resources/play-button.png"
   inkscape:export-xdpi="90"
   inkscape:export-ydpi="90"><metadata
     id="metadata55"><rdf:RDF><cc:Work
         rdf:about=""><dc:format>image/svg+xml</dc:format><dc:type
           rdf:resource="http://purl.org/dc/dcmitype/StillImage" /></cc:Work></rdf:RDF></metadata><defs
     id="defs53" /><sodipodi:namedview
     pagecolor="#ffffff"
     bordercolor="#666666"
     borderopacity="1"
     objecttolerance="10"
     gridtolerance="10"
     guidetolerance="10"
     inkscape:pageopacity="0"
     inkscape:pageshadow="2"
     inkscape:window-width="1920"
     inkscape:window-height="1016"
     id="namedview51"
     showgrid="false"
     inkscape:zoom="1.5122435"
     inkscape:cx="200.70824"
     inkscape:cy="241.74894"
     inkscape:window-x="0"
     inkscape:window-y="27"
     inkscape:window-maximized="1"
     inkscape:current-layer="Layer_1" /><g
     id="g3"
     style="stroke:none;stroke-opacity:1"><g
       id="g5"
       style="fill:#ffffff;fill-opacity:1;stroke:none;stroke-opacity:1"><path
         d="M477.606,128.055C443.431,68.863,388.251,26.52,322.229,8.83C256.208-8.862,187.25,0.217,128.055,34.394    C68.861,68.57,26.52,123.75,8.83,189.772c-17.69,66.021-8.611,134.981,25.564,194.173    C68.568,443.137,123.75,485.48,189.771,503.17c22.046,5.908,44.417,8.83,66.646,8.83c44.339,0,88.101-11.629,127.529-34.393    c59.192-34.175,101.535-89.355,119.225-155.377C520.862,256.207,511.781,187.249,477.606,128.055z M477.429,315.333    c-15.848,59.146-53.78,108.581-106.81,139.197c-53.028,30.617-114.806,38.749-173.952,22.903    c-59.147-15.848-108.581-53.78-139.198-106.81c-30.616-53.028-38.749-114.807-22.9-173.954    C50.418,137.523,88.35,88.09,141.379,57.472c35.325-20.395,74.524-30.812,114.249-30.812c19.91,0,39.959,2.618,59.702,7.909    c59.146,15.848,108.581,53.78,139.197,106.81C485.144,194.408,493.278,256.186,477.429,315.333z"
         id="path7"
         style="fill:#ffffff;fill-opacity:1;stroke:none;stroke-opacity:1" /></g></g><g
     id="g9"
     style="fill:#ffffff;fill-opacity:1;stroke:none;stroke-opacity:1"><g
       id="g11"
       style="fill:#ffffff;fill-opacity:1;stroke:none;stroke-opacity:1"><path
         d="M378.778,231.852l-164.526-94.99c-8.731-5.041-19.155-5.039-27.886-0.001c-8.731,5.04-13.944,14.069-13.944,24.15v189.98    c0,10.081,5.212,19.109,13.944,24.15c4.365,2.521,9.152,3.78,13.941,3.78c4.79,0,9.579-1.262,13.944-3.781l164.528-94.989    c8.73-5.042,13.941-14.07,13.941-24.151C392.72,245.92,387.508,236.892,378.778,231.852z M365.452,257.074l-164.527,94.989    c-0.201,0.117-0.62,0.358-1.236,0c-0.618-0.357-0.618-0.839-0.618-1.071v-189.98c0-0.232,0-0.714,0.618-1.071    c0.242-0.14,0.453-0.188,0.633-0.188c0.28,0,0.482,0.117,0.605,0.188l164.526,94.99c0.201,0.116,0.618,0.357,0.618,1.071    C366.071,256.716,365.652,256.958,365.452,257.074z"
         id="path13"
         style="fill:#ffffff;fill-opacity:1;stroke:none;stroke-opacity:1" /></g></g><g
     id="g21"
     style="stroke:none;stroke-opacity:1" /><g
     id="g23"
     style="stroke:none;stroke-opacity:1" /><g
     id="g25"
     style="stroke:none;stroke-opacity:1" /><g
     id="g27"
     style="stroke:none;stroke-opacity:1" /><g
     id="g29"
     style="stroke:none;stroke-opacity:1" /><g
     id="g31"
     style="stroke:none;stroke-opacity:1" /><g
     id="g33"
     style="stroke:none;stroke-opacity:1" /><g
     id="g35"
     style="stroke:none;stroke-opacity:1" /><g
     id="g37"
     style="stroke:none;stroke-opacity:1" /><g
     id="g39"
     style="stroke:none;stroke-opacity:1" /><g
     id="g41"
     style="stroke:none;stroke-opacity:1" /><g
     id="g43"
     style="stroke:none;stroke-opacity:1" /><g
     id="g45"
     style="stroke:none;stroke-opacity:1" /><g
     id="g47"
     style="stroke:none;stroke-opacity:1" /><g
     id="g49"
     style="stroke:none;stroke-opacity:1" /></svg>