<?xml version="1.0" encoding="UTF-8" standalone="no"?>
<!-- Generator: Adobe Illustrator 19.0.0, SVG Export Plug-In . SVG Version: 6.00 Build 0)  -->

<svg
   xmlns:dc="http://purl.org/dc/elements/1.1/"
   xmlns:cc="http://creativecommons.org/ns#"
   xmlns:rdf="http://www.w3.org/1999/02/22-rdf-syntax-ns#"
   xmlns:svg="http://www.w3.org/2000/svg"
   xmlns="http://www.w3.org/2000/svg"
   xmlns:sodipodi="http://sodipodi.sourceforge.net/DTD/sodipodi-0.dtd"
   xmlns:inkscape="http://www.inkscape.org/namespaces/inkscape"
   version="1.1"
   id="Layer_1"
   x="0px"
   y="0px"
   viewBox="0 0 512 512"
   style="enable-background:new 0 0 512 512;"
   xml:space="preserve"
   inkscape:version="0.91 r13725"
   sodipodi:docname="speakers.svg"
   inkscape:export-filename="/home/flavius/Development/radio-ui/Resources/svg/speakers.svg.png"
   inkscape:export-xdpi="90"
   inkscape:export-ydpi="90"><metadata
     id="metadata55"><rdf:RDF><cc:Work
         rdf:about=""><dc:format>image/svg+xml</dc:format><dc:type
           rdf:resource="http://purl.org/dc/dcmitype/StillImage" /></cc:Work></rdf:RDF></metadata><defs
     id="defs53" /><sodipodi:namedview
     pagecolor="#ffffff"
     bordercolor="#666666"
     borderopacity="1"
     objecttolerance="10"
     gridtolerance="10"
     guidetolerance="10"
     inkscape:pageopacity="0"
     inkscape:pageshadow="2"
     inkscape:window-width="1920"
     inkscape:window-height="1016"
     id="namedview51"
     showgrid="false"
     inkscape:zoom="0.53705662"
     inkscape:cx="223.28104"
     inkscape:cy="218.0378"
     inkscape:window-x="0"
     inkscape:window-y="27"
     inkscape:window-maximized="1"
     inkscape:current-layer="Layer_1" /><g
     id="g3"
     style="stroke:none;stroke-opacity:1;fill:#ffffff;fill-opacity:1"><g
       id="g5"
       style="stroke:none;stroke-opacity:1;fill:#ffffff;fill-opacity:1"><path
         d="M299.476,70.848c-10.399-5.568-22.956-4.96-32.77,1.583l-137.195,91.466H77.498c-13.339,0-24.299,10.298-25.394,23.358    H44.76c-24.681,0-44.76,20.079-44.76,44.76v47.972c0,24.681,20.079,44.76,44.76,44.76h7.343    c1.096,13.06,12.057,23.358,25.394,23.358h52.012l137.195,91.466c5.351,3.566,11.516,5.37,17.704,5.369    c5.161,0,10.338-1.255,15.066-3.786c10.4-5.566,16.859-16.35,16.859-28.145V98.993C316.335,87.198,309.875,76.413,299.476,70.848z     M51.994,299.418H44.76c-10.714-0.001-19.43-8.717-19.43-19.432v-47.972c0-10.714,8.716-19.43,19.43-19.43h7.234V299.418z     M120.68,322.775H77.498c-0.095,0-0.174-0.077-0.174-0.174V189.4c0-0.096,0.078-0.174,0.174-0.174h43.182V322.775z     M291.006,413.01c0,3.564-2.434,5.252-3.482,5.812c-1.047,0.56-3.802,1.65-6.768-0.327l-134.747-89.833V183.34l134.747-89.832    c2.967-1.977,5.722-0.887,6.768-0.327c1.047,0.56,3.482,2.248,3.482,5.812V413.01z"
         id="path7"
         style="stroke:none;stroke-opacity:1;fill:#ffffff;fill-opacity:1" /></g></g><g
     id="g9"
     style="fill:#ffffff;fill-opacity:1"><g
       id="g11"
       style="fill:#ffffff;fill-opacity:1"><path
         d="M445.607,95.47c-4.452-4.452-11.668-4.452-16.12,0c-4.452,4.452-4.452,11.668,0,16.12    c38.509,38.509,59.716,89.795,59.716,144.411c0,54.617-21.209,105.904-59.717,144.412c-4.452,4.452-4.452,11.668,0,16.119    c2.225,2.227,5.142,3.338,8.06,3.338c2.917,0,5.835-1.113,8.06-3.338C488.421,373.717,512,316.706,512,255.999    C512,195.294,488.421,138.283,445.607,95.47z"
         id="path13"
         style="fill:#ffffff;fill-opacity:1" /></g></g><g
     id="g15"><g
       id="g17"><path
         d="M383.011,158.067c-4.452-4.453-11.668-4.453-16.12-0.001s-4.452,11.668,0,16.12    c21.815,21.815,33.829,50.871,33.828,81.816c0,30.944-12.014,60.001-33.829,81.816c-4.452,4.452-4.452,11.668,0,16.12    c2.225,2.227,5.142,3.338,8.06,3.338c2.917,0,5.835-1.113,8.06-3.338c26.121-26.121,40.507-60.902,40.507-97.936    C423.517,218.969,409.132,184.187,383.011,158.067z"
         id="path19"
         style="stroke:none;stroke-opacity:1;fill:#ffffff;fill-opacity:1" /></g></g><g
     id="g21" /><g
     id="g23" /><g
     id="g25" /><g
     id="g27" /><g
     id="g29" /><g
     id="g31" /><g
     id="g33" /><g
     id="g35" /><g
     id="g37" /><g
     id="g39" /><g
     id="g41" /><g
     id="g43" /><g
     id="g45" /><g
     id="g47" /><g
     id="g49" /></svg>